<svg version="1.1" id="Layer_1" xmlns="http://www.w3.org/2000/svg" xmlns:xlink="http://www.w3.org/1999/xlink" x="0px" y="0px" viewBox="0 0 15 15" style="enable-background:new 0 0 511.999 511.999;" xml:space="preserve" width="15" height="15"><g><g><path d="M14.923 7.307c-0.023 -0.056 -0.566 -1.398 -1.738 -2.75 -1.577 -1.82 -3.543 -2.782 -5.685 -2.782S3.393 2.737 1.815 4.557c-1.172 1.352 -1.715 2.693 -1.738 2.75L0 7.5l0.077 0.193c0.023 0.056 0.566 1.398 1.738 2.75 1.577 1.82 3.543 2.782 5.685 2.782s4.107 -0.962 5.685 -2.782c1.172 -1.352 1.715 -2.693 1.738 -2.75l0.077 -0.193zM7.5 11.143c-2.009 0 -3.643 -1.634 -3.643 -3.643s1.634 -3.643 3.643 -3.643 3.643 1.634 3.643 3.643 -1.634 3.643 -3.643 3.643"/></g></g><g><g><path d="M7.5 4.898c-1.435 0 -2.602 1.167 -2.602 2.602s1.167 2.602 2.602 2.602 2.602 -1.167 2.602 -2.602 -1.167 -2.602 -2.602 -2.602m0 2.082c-0.287 0 -0.52 0.233 -0.52 0.52h-1.041c0 -0.861 0.7 -1.561 1.561 -1.561z"/></g></g></svg>