<?xml version="1.0" standalone="no"?>
<!DOCTYPE svg PUBLIC "-//W3C//DTD SVG 20010904//EN"
 "http://www.w3.org/TR/2001/REC-SVG-20010904/DTD/svg10.dtd">
<svg version="1.0" xmlns="http://www.w3.org/2000/svg"
 width="700.000000pt" height="700.000000pt" viewBox="0 0 700.000000 700.000000"
 preserveAspectRatio="xMidYMid meet">
<metadata>
Created by potrace 1.14, written by Peter Selinger 2001-2017
</metadata>
<g transform="translate(0.000000,700.000000) scale(0.100000,-0.100000)"
fill="#000000" stroke="none">
<path d="M2371 6194 c-91 -33 -159 -91 -215 -183 -146 -240 -107 -594 86 -783
113 -111 274 -144 404 -82 20 10 63 42 95 72 153 141 208 412 133 646 -43 135
-143 258 -250 311 -73 36 -184 44 -253 19z"/>
<path d="M1340 6047 c-26 -7 -63 -23 -83 -36 -42 -25 -114 -104 -130 -141 -7
-14 -14 -27 -17 -30 -8 -8 -31 -78 -46 -139 -19 -82 -12 -258 16 -351 53 -184
178 -347 316 -412 61 -29 78 -33 154 -33 69 0 94 5 134 24 205 101 298 419
205 702 -46 139 -99 226 -192 312 -102 94 -245 136 -357 104z"/>
<path d="M3346 5830 c-142 -55 -252 -185 -301 -355 -18 -62 -25 -216 -13 -290
15 -93 62 -189 125 -256 150 -161 366 -164 531 -8 266 254 225 749 -75 895
-74 37 -194 43 -267 14z"/>
<path d="M527 5269 c-264 -60 -357 -404 -192 -706 77 -141 213 -256 353 -300
26 -8 79 -15 117 -15 224 0 370 184 352 445 -17 244 -185 475 -404 557 -62 23
-168 32 -226 19z"/>
<path d="M2165 4805 c-221 -40 -422 -159 -619 -366 -225 -236 -349 -507 -340
-741 6 -171 97 -324 228 -388 144 -70 272 -42 641 140 220 108 305 143 380
155 22 3 121 8 220 10 322 8 415 21 524 72 59 28 151 107 151 129 0 8 5 14 11
14 5 0 8 4 4 9 -3 5 -1 12 5 16 19 12 43 120 42 191 -1 154 -67 290 -205 427
-166 164 -388 274 -672 332 -62 13 -301 13 -370 0z"/>
<path d="M5155 3433 c-230 -92 -343 -434 -242 -733 50 -149 146 -269 260 -324
62 -30 77 -33 145 -32 96 3 155 29 227 101 137 139 186 392 119 624 -37 127
-134 270 -225 326 -82 52 -207 69 -284 38z"/>
<path d="M6219 3225 c-192 -40 -329 -238 -330 -479 -1 -50 2 -102 5 -116 3
-14 9 -41 12 -60 9 -47 46 -130 82 -183 47 -68 102 -115 172 -150 57 -28 74
-32 145 -32 95 1 165 28 231 91 110 106 164 248 159 418 -4 127 -16 178 -68
281 -36 73 -136 175 -199 203 -66 31 -144 41 -209 27z"/>
<path d="M4129 3010 c-129 -40 -206 -116 -249 -246 -37 -111 -28 -287 20 -391
5 -13 16 -35 22 -50 43 -98 142 -210 237 -272 305 -197 631 -26 633 333 3 377
-361 720 -663 626z"/>
<path d="M3422 2168 c-101 -38 -178 -136 -200 -257 -62 -339 258 -743 588
-742 161 0 273 91 315 256 50 199 -52 466 -237 620 -26 22 -53 45 -61 51 -25
21 -143 73 -192 84 -67 15 -153 10 -213 -12z"/>
<path d="M5326 1984 c-442 -66 -798 -365 -929 -779 -45 -143 -60 -293 -42
-410 38 -239 233 -400 472 -390 130 5 248 61 493 233 228 160 267 170 644 172
146 1 234 6 275 16 158 36 241 115 297 281 23 67 26 90 21 158 -8 131 -68 255
-181 373 -48 51 -171 150 -226 181 -60 34 -154 81 -162 81 -6 0 -24 6 -41 14
-149 68 -425 99 -621 70z"/>
</g>
</svg>
